<?xml version="1.0" encoding="utf-8"?>
<!-- Generator: Adobe Illustrator 24.2.0, SVG Export Plug-In . SVG Version: 6.00 Build 0)  -->
<svg version="1.1" id="图层_1" xmlns="http://www.w3.org/2000/svg" xmlns:xlink="http://www.w3.org/1999/xlink" x="0px" y="0px"
	 viewBox="0 0 150 150" style="enable-background:new 0 0 150 150;" xml:space="preserve">
<style type="text/css">
	.st0{fill:#FFFFFF;stroke:#000000;stroke-width:3;stroke-miterlimit:10;}
	.st1{fill:none;stroke:#000000;stroke-width:10;stroke-linecap:round;stroke-miterlimit:10;}
	.st2{fill:none;stroke:#FFFFFF;stroke-width:16;stroke-linecap:round;stroke-miterlimit:10;}
	.st3{fill:none;stroke:#0071BC;stroke-width:10;stroke-linecap:round;stroke-miterlimit:10;}
	.st4{fill:none;stroke:#FFFFFF;stroke-width:15;stroke-miterlimit:10;}
</style>
<g>
	<path class="st0" d="M124.82,145.51H25.18c-11.43,0-20.69-9.26-20.69-20.69V25.18c0-11.43,9.26-20.69,20.69-20.69h99.63
		c11.43,0,20.69,9.26,20.69,20.69v99.63C145.51,136.24,136.24,145.51,124.82,145.51z"/>
	<path class="st1" d="M78.45,29.68c-5-10-18-7-20.5,5.5c-2.11,10.56,3.5,77.5-19.5,89.5c-7.71,4.02-17,0-19-6c-2.54-7.62,1-16,11-16
		c16.03,0,16.5,20.5,46.5,20.5h48.5"/>
	<line class="st1" x1="40.45" y1="56.68" x2="91.28" y2="56.68"/>
	<g>
		<path class="st2" d="M125.45,109.68H99.13c-11.97,0-21.68-9.71-21.68-21.68v-9.64c0-11.97,9.71-21.68,21.68-21.68h26.32"/>
		<path class="st3" d="M125.45,109.68H99.13c-11.97,0-21.68-9.71-21.68-21.68v-9.64c0-11.97,9.71-21.68,21.68-21.68h26.32"/>
	</g>
	<g>
		<path class="st4" d="M30.45,102.68c16.03,0,16.5,20.5,46.5,20.5"/>
		<path class="st1" d="M30.45,102.68c16.03,0,16.5,20.5,46.5,20.5"/>
	</g>
</g>
</svg>
