<?xml version="1.0" encoding="utf-8"?>
<!-- Generator: Adobe Illustrator 28.0.0, SVG Export Plug-In . SVG Version: 6.00 Build 0)  -->
<svg version="1.1" id="图层_1" xmlns="http://www.w3.org/2000/svg" xmlns:xlink="http://www.w3.org/1999/xlink" x="0px" y="0px"
	 viewBox="0 0 255 255" style="enable-background:new 0 0 255 255;" xml:space="preserve">
<style type="text/css">
	.st0{fill:#FFFFFF;}
</style>
<path class="st0" d="M241.06,196.26v4.96h-42.74c-4.59-15.85-13.14-30.37-25.13-42.37c-5.21-5.21-10.94-9.79-17.11-13.7
	c7.46-10.77,11.47-23.53,11.47-36.98c0-34.58-27.07-62.95-61.12-65.04c10.01-13.88,26.32-22.91,44.75-22.91
	c30.47,0,55.17,24.7,55.17,55.17c0,15.67-6.53,29.82-17.03,39.86c9.57,4.44,18.23,10.52,25.6,17.89
	C231.07,149.3,241.06,171.61,241.06,196.26z"/>
<path class="st0" d="M192.26,229.04V234H13.74v-4.96c0-35.57,20.8-66.28,50.91-80.63c-10.73-10.05-17.44-24.36-17.44-40.24
	C47.21,77.7,71.91,53,102.38,53c30.47,0,55.17,24.7,55.17,55.17c0,15.67-6.53,29.82-17.03,39.86c9.57,4.44,18.23,10.52,25.6,17.89
	C182.27,182.08,192.26,204.39,192.26,229.04z"/>
</svg>
