<?xml version="1.0" encoding="utf-8"?>
<!-- Generator: Adobe Illustrator 28.0.0, SVG Export Plug-In . SVG Version: 6.00 Build 0)  -->
<svg version="1.1" id="图层_1" xmlns="http://www.w3.org/2000/svg" xmlns:xlink="http://www.w3.org/1999/xlink" x="0px" y="0px"
	 viewBox="0 0 200 200" style="enable-background:new 0 0 200 200;" xml:space="preserve">
<style type="text/css">
	.st0{fill:#FFFFFF;}
</style>
<path class="st0" d="M63.51,187.02c-9.34,0-17.8,0.32-26.23-0.08c-10.7-0.51-18.6-10.19-18.68-22.48
	c-0.1-16.19-0.02-32.37-0.02-48.56c0-27.65-0.01-55.29-0.01-82.94c0-14,6.2-20.19,20.16-20.19c41.54,0,83.09,0.17,124.63-0.13
	c10.99-0.08,18.38,6.19,18.28,18.03c-0.39,47.27-0.16,94.54-0.17,141.82c0,8.3-4.83,13.55-13.15,14.47
	c-4.95,0.55-8.25-0.88-12.03-4.89c-9.54-10.13-13.41-21.44-11.48-35.03c0.26-1.81,0.03-3.7,0.03-6.01
	c5.04-0.34,9.82-0.67,15.95-1.09c-5.7-5.9-8.46-12.96-16.04-16.85c0-30.94,0-62.68,0-94.7c-1.63-0.12-2.88-0.29-4.12-0.3
	c-30.37-0.01-60.74,0.06-91.11-0.09c-3.8-0.02-4.85,1.03-4.8,4.82c0.21,15.9,0.09,31.8,0.09,47.7c0,1.4,0,2.8,0,4.79
	c4.32,0,8.17,0.19,11.97-0.12c1.11-0.09,2.29-1.46,3.12-2.49c4.78-5.88,9.42-11.88,14.21-17.75c2.6-3.18,6.02-4.45,10.23-4.39
	c10.88,0.17,21.78-0.14,32.66,0.17c2.18,0.06,4.99,1.47,6.35,3.18c4.27,5.37,8.18,11.05,11.81,16.88c0.99,1.59,1.41,5.14,0.46,6
	c-2.11,1.92-4.38,0.41-6.02-1.85c-1.33-1.85-2.96-3.49-4.46-5.23c-8.67-10.02-8.67-9.95-21.79-9.76c-3.48,0.05-3.95,1.31-2.58,4.21
	c3.06,6.47,5.76,13.12,9.05,19.46c2.93,5.65,4.26,11.46,3.92,17.76c-0.22,4-0.17,8.02-0.32,12.03c-0.19,5.28,0.34,5.86,5.8,5.77
	c7.16-0.12,14.41,0.36,21.46-0.6c7.45-1.01,10.08,4.11,14.7,8.89c-3.41,0.23-5.79,0.49-8.17,0.52c-11.89,0.14-23.78,0.24-35.67,0.31
	c-6.33,0.04-7.46-0.89-8.15-7.16c-0.82-7.54-1.36-15.11-2.18-22.65c-0.13-1.23-1.09-2.37-1.67-3.55c-0.95,0.94-2.22,1.71-2.8,2.83
	c-8.38,16.29-16.78,32.57-24.88,49c-1.67,3.38-3.68,5.07-7.38,5.17c-2.65,0.07-5.29,0.5-7.93,0.77
	c6.43-13.19,12.72-26.15,19.06-39.09c3.15-6.43,6.53-12.74,9.48-19.26c0.66-1.45,0.4-3.73-0.25-5.28
	c-2.31-5.53-4.99-10.91-7.5-16.36c-0.58-1.26-1.06-2.56-2.13-5.16c-3.22,4.45-6.08,7.92-8.37,11.73c-1.94,3.23-4.32,4.49-8.04,4.18
	c-3.55-0.3-7.16,0.06-10.74-0.04c-2.38-0.07-3.3,0.82-3.29,3.25c0.06,22.35-0.02,44.69,0.13,67.04c0.01,1.62,1.08,3.51,2.21,4.81
	c4.52,5.18,9.26,10.17,13.88,15.25C61.79,184.63,62.43,185.61,63.51,187.02z"/>
<path class="st0" d="M75.26,34.71c7.02,0,12.26,5.17,12.24,12.06c-0.03,6.55-5.37,11.96-11.93,12.08
	c-6.81,0.12-12.36-5.22-12.44-11.98C63.05,39.99,68.32,34.71,75.26,34.71z"/>
<path class="st0" d="M87.26,186.87c-7.28,0.88-13.21,1.33-17.55-5.43c-3.33-5.19-7.93-9.57-12.43-14.85
	c4.14-0.35,7.49-0.76,10.86-0.85c0.94-0.03,2.19,0.65,2.82,1.4C76.28,173.45,81.5,179.85,87.26,186.87z"/>
</svg>
